<?xml version="1.0" encoding="UTF-8" standalone="no"?>
<!DOCTYPE svg PUBLIC "-//W3C//DTD SVG 1.1//EN" "http://www.w3.org/Graphics/SVG/1.1/DTD/svg11.dtd">
<svg version="1.1" xmlns="http://www.w3.org/2000/svg" xmlns:xlink="http://www.w3.org/1999/xlink" preserveAspectRatio="xMidYMid meet" viewBox="160.12699590561306 44.527734080714765 72.87300409438694 104.15571915669528" width="100" height="140"><defs><path d="M199.31 47.64L200.65 47.78L201.99 47.98L203.3 48.23L204.6 48.53L205.88 48.88L207.13 49.29L208.37 49.74L209.58 50.24L210.77 50.79L211.93 51.38L213.07 52.02L214.18 52.7L215.26 53.43L216.31 54.19L217.33 55L218.32 55.84L219.28 56.72L220.21 57.64L221.1 58.6L221.95 59.59L222.77 60.61L223.55 61.67L224.29 62.75L224.99 63.87L225.65 65.02L226.27 66.19L226.84 67.39L227.37 68.62L227.86 69.87L228.3 71.15L228.69 72.45L229.03 73.76L229.32 75.1L229.56 76.46L229.75 77.84L229.89 79.23L229.97 80.64L230 82.06L229.97 83.49L229.89 84.9L229.75 86.3L229.56 87.7L229.32 89.08L229.03 90.46L228.69 91.84L228.3 93.21L227.86 94.59L227.37 95.96L226.84 97.34L226.27 98.72L225.65 100.11L224.99 101.5L224.29 102.91L223.55 104.32L222.77 105.75L221.95 107.19L221.1 108.65L220.21 110.12L219.28 111.61L218.32 113.13L217.33 114.66L216.31 116.22L215.26 117.8L214.18 119.41L213.07 121.05L211.93 122.72L210.77 124.42L209.58 126.16L208.37 127.92L207.13 129.73L205.88 131.57L204.6 133.46L203.3 135.38L201.99 137.35L200.65 139.36L199.31 141.42L197.94 143.53L196.56 145.68L195.19 143.53L193.82 141.42L192.47 139.36L191.14 137.35L189.82 135.38L188.53 133.46L187.25 131.57L185.99 129.73L184.76 127.92L183.55 126.16L182.36 124.42L181.2 122.72L180.06 121.05L178.95 119.41L177.87 117.8L176.82 116.22L175.79 114.66L174.8 113.13L173.85 111.61L172.92 110.12L172.03 108.65L171.18 107.19L170.36 105.75L169.58 104.32L168.84 102.91L168.14 101.5L167.48 100.11L166.86 98.72L166.28 97.34L165.75 95.96L165.27 94.59L164.83 93.21L164.44 91.84L164.1 90.46L163.81 89.08L163.56 87.7L163.37 86.3L163.24 84.9L163.15 83.49L163.13 82.06L163.15 80.64L163.24 79.23L163.37 77.84L163.56 76.46L163.81 75.1L164.1 73.76L164.44 72.45L164.83 71.15L165.27 69.87L165.75 68.62L166.28 67.39L166.86 66.19L167.48 65.02L168.14 63.87L168.84 62.75L169.58 61.67L170.36 60.61L171.18 59.59L172.03 58.6L172.92 57.64L173.85 56.72L174.8 55.84L175.79 55L176.82 54.19L177.87 53.43L178.95 52.7L180.06 52.02L181.2 51.38L182.36 50.79L183.55 50.24L184.76 49.74L185.99 49.29L187.25 48.88L188.53 48.53L189.82 48.23L191.14 47.98L192.47 47.78L193.82 47.64L195.19 47.56L196.56 47.53L197.94 47.56L199.31 47.64ZM195.26 63.94L194.63 64.01L193.99 64.1L193.37 64.22L192.76 64.36L192.15 64.53L191.56 64.72L190.97 64.94L190.4 65.17L189.84 65.43L189.28 65.71L188.75 66.02L188.22 66.34L187.71 66.68L187.21 67.04L186.73 67.42L186.26 67.82L185.8 68.24L185.36 68.68L184.94 69.13L184.54 69.6L184.15 70.08L183.78 70.58L183.43 71.1L183.1 71.63L182.79 72.17L182.49 72.73L182.22 73.3L181.97 73.88L181.74 74.47L181.53 75.08L181.35 75.69L181.19 76.31L181.05 76.95L180.93 77.59L180.84 78.24L180.78 78.9L180.74 79.57L180.73 80.25L180.74 80.92L180.78 81.59L180.84 82.25L180.93 82.9L181.05 83.54L181.19 84.18L181.35 84.8L181.53 85.42L181.74 86.02L181.97 86.61L182.22 87.2L182.49 87.76L182.79 88.32L183.1 88.86L183.43 89.39L183.78 89.91L184.15 90.41L184.54 90.89L184.94 91.36L185.36 91.81L185.8 92.25L186.26 92.67L186.73 93.07L187.21 93.45L187.71 93.81L188.22 94.15L188.75 94.48L189.28 94.78L189.84 95.06L190.4 95.32L190.97 95.56L191.56 95.77L192.15 95.96L192.76 96.13L193.37 96.27L193.99 96.39L194.63 96.48L195.26 96.55L195.91 96.59L196.56 96.61L197.22 96.59L197.86 96.55L198.5 96.48L199.13 96.39L199.76 96.27L200.37 96.13L200.97 95.96L201.57 95.77L202.15 95.56L202.73 95.32L203.29 95.06L203.84 94.78L204.38 94.48L204.91 94.15L205.42 93.81L205.92 93.45L206.4 93.07L206.87 92.67L207.32 92.25L207.76 91.81L208.18 91.36L208.59 90.89L208.98 90.41L209.35 89.91L209.7 89.39L210.03 88.86L210.34 88.32L210.63 87.76L210.91 87.2L211.16 86.61L211.39 86.02L211.59 85.42L211.78 84.8L211.94 84.18L212.08 83.54L212.19 82.9L212.28 82.25L212.35 81.59L212.39 80.92L212.4 80.25L212.39 79.57L212.35 78.9L212.28 78.24L212.19 77.59L212.08 76.95L211.94 76.31L211.78 75.69L211.59 75.08L211.39 74.47L211.16 73.88L210.91 73.3L210.63 72.73L210.34 72.17L210.03 71.63L209.7 71.1L209.35 70.58L208.98 70.08L208.59 69.6L208.18 69.13L207.76 68.68L207.32 68.24L206.87 67.82L206.4 67.42L205.92 67.04L205.42 66.68L204.91 66.34L204.38 66.02L203.84 65.71L203.29 65.43L202.73 65.17L202.15 64.94L201.57 64.72L200.97 64.53L200.37 64.36L199.76 64.22L199.13 64.1L198.5 64.01L197.86 63.94L197.22 63.9L196.56 63.89L195.91 63.9L195.26 63.94Z" id="bmmDOCfvY"></path></defs><g><g><use xlink:href="#bmmDOCfvY" opacity="1" fill="#e25d33" fill-opacity="1"></use></g></g></svg>